# xmcd CD database file
#
# Track frame offsets:
#	150
#	31011
#	64476
#	97627
#	131661
#	231668
#
# Disc length: 3403 seconds
#
# Revision: 2
# Processed by: cddbd v1.5.2PL0 Copyright (c) Steve Scherf et al.
# Submitted via: CDex 1.51
#
DISCID=4a0d4906
DTITLE=Amrit Sadhana Singh - Amrit Sadhana Aquarian Chants
DYEAR=2013
DGENRE=New Age
TTITLE0=Wha Yantee
TTITLE1=Mool Mantra
TTITLE2=Sat Siri Siri Akaal
TTITLE3=Rakhe Rakhanhar
TTITLE4=Wahe Guru
TTITLE5=Guru Ram Das
EXTD=YEAR: 2013
EXTT0=
EXTT1=
EXTT2=
EXTT3=
EXTT4=
EXTT5=
PLAYORDER=
